<svg xmlns="http://www.w3.org/2000/svg" viewBox="0 0 100 100">
  <defs>
    <linearGradient id="g" x1="0" y1="0" x2="1" y2="1">
      <stop offset="0%" stop-color="#00e5ff"/>
      <stop offset="100%" stop-color="#0055ff"/>
    </linearGradient>
  </defs>
  <rect width="100" height="100" rx="20" fill="#0b0e14"/>
  <path d="M72 45 H50 V58 H68 C66 68 59 72 50 72 C38 72 30 63 30 50 C30 37 38 28 50 28 C57 28 63 32 66 38 L78 30 C72 20 62 15 50 15 C30 15 15 30 15 50 C15 70 30 85 50 85 C69 85 82 72 82 50 C82 48 82 46 82 45 Z" fill="url(#g)"/>
</svg>
